<svg width="120" height="32" viewBox="0 0 120 32" fill="none" xmlns="http://www.w3.org/2000/svg">
<g clip-path="url(#clip0_1474_14676)">
<rect width="32" height="32" rx="4" fill="#FFCC00"/>
<path d="M11.75 26.5L10.25 25.375V20.75H8.75C8.35 20.75 8 20.6 7.7 20.3C7.4 20 7.25 19.65 7.25 19.25V11.25H7C6.78333 11.25 6.60417 11.1792 6.4625 11.0375C6.32083 10.8958 6.25 10.7167 6.25 10.5C6.25 10.2833 6.32083 10.1042 6.4625 9.9625C6.60417 9.82083 6.78333 9.75 7 9.75H10.25V7.5H9.5C9.28333 7.5 9.10417 7.42917 8.9625 7.2875C8.82083 7.14583 8.75 6.96667 8.75 6.75C8.75 6.53333 8.82083 6.35417 8.9625 6.2125C9.10417 6.07083 9.28333 6 9.5 6H12.5C12.7167 6 12.8958 6.07083 13.0375 6.2125C13.1792 6.35417 13.25 6.53333 13.25 6.75C13.25 6.96667 13.1792 7.14583 13.0375 7.2875C12.8958 7.42917 12.7167 7.5 12.5 7.5H11.75V9.75H15C15.2167 9.75 15.3958 9.82083 15.5375 9.9625C15.6792 10.1042 15.75 10.2833 15.75 10.5C15.75 10.7167 15.6792 10.8958 15.5375 11.0375C15.3958 11.1792 15.2167 11.25 15 11.25H14.75V19.25C14.75 19.65 14.6 20 14.3 20.3C14 20.6 13.65 20.75 13.25 20.75H11.75V26.5ZM8.75 19.25H13.25V17.25H11.25C11.1167 17.25 11 17.2 10.9 17.1C10.8 17 10.75 16.8833 10.75 16.75C10.75 16.6167 10.8 16.5 10.9 16.4C11 16.3 11.1167 16.25 11.25 16.25H13.25V14.25H11.25C11.1167 14.25 11 14.2 10.9 14.1C10.8 14 10.75 13.8833 10.75 13.75C10.75 13.6167 10.8 13.5 10.9 13.4C11 13.3 11.1167 13.25 11.25 13.25H13.25V11.25H8.75V19.25ZM19 26C18.6 26 18.25 25.85 17.95 25.55C17.65 25.25 17.5 24.9 17.5 24.5V17.85C17.5 17.3167 17.5667 16.9125 17.7 16.6375C17.8333 16.3625 18.0083 16.1083 18.225 15.875C18.5417 15.5417 18.75 15.2833 18.85 15.1C18.95 14.9167 19 14.7167 19 14.5V13.75H18.75C18.5333 13.75 18.3542 13.6792 18.2125 13.5375C18.0708 13.3958 18 13.2167 18 13C18 12.7833 18.075 12.6042 18.225 12.4625C18.375 12.3208 18.55 12.25 18.75 12.25H23.75C23.9667 12.25 24.1458 12.3208 24.2875 12.4625C24.4292 12.6042 24.5 12.7833 24.5 13C24.5 13.2167 24.4292 13.3958 24.2875 13.5375C24.1458 13.6792 23.9667 13.75 23.75 13.75H23.5V14.5C23.5 14.7 23.5625 14.9083 23.6875 15.125C23.8125 15.3417 24.0333 15.6167 24.35 15.95C24.5667 16.1833 24.7292 16.425 24.8375 16.675C24.9458 16.925 25 17.3167 25 17.85V24.5C25 24.9 24.85 25.25 24.55 25.55C24.25 25.85 23.9 26 23.5 26H19ZM19 18.5H23.5V17.85C23.5 17.55 23.4167 17.2833 23.25 17.05C23.0833 16.8167 22.9 16.575 22.7 16.325C22.45 16.0083 22.2708 15.7167 22.1625 15.45C22.0542 15.1833 22 14.8667 22 14.5V13.75H20.5V14.5C20.5 14.85 20.45 15.1583 20.35 15.425C20.25 15.6917 20.075 15.9833 19.825 16.3C19.625 16.55 19.4375 16.7958 19.2625 17.0375C19.0875 17.2792 19 17.55 19 17.85V18.5ZM19 21.5H23.5V19.5H19V21.5ZM19 24.5H23.5V22.5H19V24.5ZM19 21.5H23.5H19Z" fill="white"/>
<path d="M41.644 9.596C41.42 9.596 41.248 9.532 41.128 9.404C41.008 9.276 40.948 9.1 40.948 8.876V1.664C40.948 1.432 41.012 1.256 41.14 1.136C41.268 1.008 41.444 0.943999 41.668 0.943999C41.868 0.943999 42.024 0.983999 42.136 1.064C42.256 1.136 42.364 1.264 42.46 1.448L45.424 6.932H45.04L48.004 1.448C48.1 1.264 48.204 1.136 48.316 1.064C48.428 0.983999 48.584 0.943999 48.784 0.943999C49.008 0.943999 49.18 1.008 49.3 1.136C49.42 1.256 49.48 1.432 49.48 1.664V8.876C49.48 9.1 49.42 9.276 49.3 9.404C49.188 9.532 49.016 9.596 48.784 9.596C48.56 9.596 48.388 9.532 48.268 9.404C48.148 9.276 48.088 9.1 48.088 8.876V3.32H48.352L45.832 7.916C45.752 8.052 45.668 8.152 45.58 8.216C45.492 8.28 45.372 8.312 45.22 8.312C45.068 8.312 44.944 8.28 44.848 8.216C44.752 8.144 44.668 8.044 44.596 7.916L42.052 3.308H42.34V8.876C42.34 9.1 42.28 9.276 42.16 9.404C42.048 9.532 41.876 9.596 41.644 9.596ZM51.798 9.596C51.55 9.596 51.358 9.528 51.222 9.392C51.094 9.248 51.03 9.052 51.03 8.804V1.736C51.03 1.48 51.094 1.284 51.222 1.148C51.358 1.012 51.55 0.943999 51.798 0.943999C52.046 0.943999 52.234 1.012 52.362 1.148C52.498 1.284 52.566 1.48 52.566 1.736V8.804C52.566 9.052 52.502 9.248 52.374 9.392C52.246 9.528 52.054 9.596 51.798 9.596ZM57.8967 9.62C57.0807 9.62 56.3647 9.44 55.7487 9.08C55.1407 8.72 54.6687 8.216 54.3327 7.568C53.9967 6.912 53.8287 6.144 53.8287 5.264C53.8287 4.6 53.9247 4.004 54.1167 3.476C54.3087 2.94 54.5807 2.484 54.9327 2.108C55.2927 1.724 55.7207 1.432 56.2167 1.232C56.7207 1.024 57.2807 0.92 57.8967 0.92C58.7207 0.92 59.4367 1.1 60.0447 1.46C60.6527 1.812 61.1247 2.312 61.4607 2.96C61.7967 3.608 61.9647 4.372 61.9647 5.252C61.9647 5.916 61.8687 6.516 61.6767 7.052C61.4847 7.588 61.2087 8.048 60.8487 8.432C60.4967 8.816 60.0687 9.112 59.5647 9.32C59.0687 9.52 58.5127 9.62 57.8967 9.62ZM57.8967 8.3C58.4167 8.3 58.8567 8.18 59.2167 7.94C59.5847 7.7 59.8647 7.352 60.0567 6.896C60.2567 6.44 60.3567 5.896 60.3567 5.264C60.3567 4.304 60.1407 3.56 59.7087 3.032C59.2847 2.504 58.6807 2.24 57.8967 2.24C57.3847 2.24 56.9447 2.36 56.5767 2.6C56.2087 2.832 55.9247 3.176 55.7247 3.632C55.5327 4.08 55.4367 4.624 55.4367 5.264C55.4367 6.216 55.6527 6.96 56.0847 7.496C56.5167 8.032 57.1207 8.3 57.8967 8.3ZM42.256 27.628C41.9253 27.628 41.6693 27.5373 41.488 27.356C41.3173 27.164 41.232 26.9027 41.232 26.572V17.148C41.232 16.8067 41.3173 16.5453 41.488 16.364C41.6693 16.1827 41.9253 16.092 42.256 16.092C42.5867 16.092 42.8373 16.1827 43.008 16.364C43.1893 16.5453 43.28 16.8067 43.28 17.148V26.572C43.28 26.9027 43.1947 27.164 43.024 27.356C42.8533 27.5373 42.5973 27.628 42.256 27.628ZM46.7076 27.628C46.409 27.628 46.1796 27.5427 46.0196 27.372C45.8596 27.2013 45.7796 26.9667 45.7796 26.668V17.052C45.7796 16.7427 45.865 16.508 46.0356 16.348C46.2063 16.1773 46.441 16.092 46.7396 16.092C47.0063 16.092 47.2143 16.1453 47.3636 16.252C47.5236 16.348 47.6676 16.5187 47.7956 16.764L51.7476 24.076H51.2356L55.1876 16.764C55.3156 16.5187 55.4543 16.348 55.6036 16.252C55.753 16.1453 55.961 16.092 56.2276 16.092C56.5263 16.092 56.7556 16.1773 56.9156 16.348C57.0756 16.508 57.1556 16.7427 57.1556 17.052V26.668C57.1556 26.9667 57.0756 27.2013 56.9156 27.372C56.7663 27.5427 56.537 27.628 56.2276 27.628C55.929 27.628 55.6996 27.5427 55.5396 27.372C55.3796 27.2013 55.2996 26.9667 55.2996 26.668V19.26H55.6516L52.2916 25.388C52.185 25.5693 52.073 25.7027 51.9556 25.788C51.8383 25.8733 51.6783 25.916 51.4756 25.916C51.273 25.916 51.1076 25.8733 50.9796 25.788C50.8516 25.692 50.7396 25.5587 50.6436 25.388L47.2516 19.244H47.6356V26.668C47.6356 26.9667 47.5556 27.2013 47.3956 27.372C47.2463 27.5427 47.017 27.628 46.7076 27.628ZM60.6623 27.628C60.3316 27.628 60.0756 27.5373 59.8943 27.356C59.7236 27.164 59.6383 26.9027 59.6383 26.572V17.26C59.6383 16.9187 59.7289 16.6627 59.9103 16.492C60.0916 16.3107 60.3476 16.22 60.6783 16.22H64.5343C65.7716 16.22 66.7263 16.5293 67.3983 17.148C68.0703 17.7667 68.4062 18.6307 68.4062 19.74C68.4062 20.8493 68.0703 21.7187 67.3983 22.348C66.7263 22.9667 65.7716 23.276 64.5343 23.276H61.6863V26.572C61.6863 26.9027 61.6009 27.164 61.4303 27.356C61.2596 27.5373 61.0036 27.628 60.6623 27.628ZM61.6863 21.66H64.2143C64.9396 21.66 65.4889 21.5 65.8623 21.18C66.2356 20.8493 66.4223 20.3693 66.4223 19.74C66.4223 19.1107 66.2356 18.636 65.8623 18.316C65.4889 17.996 64.9396 17.836 64.2143 17.836H61.6863V21.66ZM71.1318 27.628C70.8011 27.628 70.5398 27.5373 70.3478 27.356C70.1664 27.164 70.0758 26.892 70.0758 26.54V17.308C70.0758 16.956 70.1664 16.6893 70.3478 16.508C70.5398 16.316 70.8118 16.22 71.1638 16.22H76.7478C77.0251 16.22 77.2331 16.2893 77.3718 16.428C77.5104 16.5667 77.5798 16.764 77.5798 17.02C77.5798 17.2867 77.5104 17.4947 77.3718 17.644C77.2331 17.7827 77.0251 17.852 76.7478 17.852H72.1238V21.036H76.4118C76.6784 21.036 76.8811 21.1053 77.0198 21.244C77.1691 21.3827 77.2438 21.58 77.2438 21.836C77.2438 22.1027 77.1691 22.3107 77.0198 22.46C76.8811 22.5987 76.6784 22.668 76.4118 22.668H72.1238V26.54C72.1238 27.2653 71.7931 27.628 71.1318 27.628ZM80.0841 27.628C79.7535 27.628 79.4975 27.5373 79.3161 27.356C79.1455 27.164 79.0601 26.9027 79.0601 26.572V17.26C79.0601 16.9187 79.1508 16.6627 79.3321 16.492C79.5135 16.3107 79.7695 16.22 80.1001 16.22H83.9561C85.1935 16.22 86.1481 16.5293 86.8201 17.148C87.4921 17.7667 87.8281 18.6307 87.8281 19.74C87.8281 20.8493 87.4921 21.7187 86.8201 22.348C86.1481 22.9667 85.1935 23.276 83.9561 23.276H81.1081V26.572C81.1081 26.9027 81.0228 27.164 80.8521 27.356C80.6815 27.5373 80.4255 27.628 80.0841 27.628ZM81.1081 21.66H83.6361C84.3615 21.66 84.9108 21.5 85.2841 21.18C85.6575 20.8493 85.8441 20.3693 85.8441 19.74C85.8441 19.1107 85.6575 18.636 85.2841 18.316C84.9108 17.996 84.3615 17.836 83.6361 17.836H81.1081V21.66ZM88.4378 27.628C88.1818 27.628 87.9738 27.5693 87.8138 27.452C87.6644 27.3347 87.5738 27.18 87.5418 26.988C87.5098 26.7853 87.5471 26.5613 87.6538 26.316L91.8778 16.956C92.0164 16.6467 92.1818 16.428 92.3738 16.3C92.5764 16.1613 92.8058 16.092 93.0618 16.092C93.3071 16.092 93.5258 16.1613 93.7178 16.3C93.9204 16.428 94.0911 16.6467 94.2298 16.956L98.4698 26.316C98.5871 26.5613 98.6298 26.7853 98.5978 26.988C98.5658 27.1907 98.4751 27.3507 98.3258 27.468C98.1764 27.5747 97.9791 27.628 97.7338 27.628C97.4351 27.628 97.2004 27.5587 97.0298 27.42C96.8698 27.2707 96.7258 27.0467 96.5978 26.748L95.5578 24.332L96.4218 24.892H89.6698L90.5338 24.332L89.5098 26.748C89.3711 27.0573 89.2271 27.2813 89.0778 27.42C88.9284 27.5587 88.7151 27.628 88.4378 27.628ZM93.0298 18.444L90.7898 23.772L90.3738 23.26H95.7178L95.3177 23.772L93.0618 18.444H93.0298ZM103.995 27.66C103.526 27.66 103.056 27.6227 102.587 27.548C102.118 27.484 101.675 27.3827 101.259 27.244C100.843 27.0947 100.47 26.9133 100.139 26.7C99.947 26.572 99.8137 26.4173 99.739 26.236C99.6643 26.0547 99.6377 25.8787 99.659 25.708C99.691 25.5267 99.7603 25.372 99.867 25.244C99.9843 25.1053 100.128 25.02 100.299 24.988C100.47 24.956 100.656 25.004 100.859 25.132C101.328 25.4093 101.824 25.612 102.347 25.74C102.87 25.868 103.419 25.932 103.995 25.932C104.838 25.932 105.451 25.7933 105.835 25.516C106.219 25.228 106.411 24.86 106.411 24.412C106.411 24.0387 106.272 23.7453 105.995 23.532C105.728 23.3187 105.264 23.1427 104.603 23.004L102.843 22.636C101.83 22.4227 101.072 22.0653 100.571 21.564C100.08 21.052 99.835 20.38 99.835 19.548C99.835 19.0253 99.9417 18.5507 100.155 18.124C100.368 17.6973 100.667 17.3293 101.051 17.02C101.446 16.7107 101.91 16.476 102.443 16.316C102.987 16.1453 103.584 16.06 104.235 16.06C104.875 16.06 105.483 16.14 106.059 16.3C106.635 16.46 107.152 16.6947 107.611 17.004C107.782 17.1213 107.894 17.2653 107.947 17.436C108.011 17.6067 108.027 17.7773 107.995 17.948C107.963 18.108 107.888 18.2467 107.771 18.364C107.654 18.4813 107.504 18.5507 107.323 18.572C107.152 18.5933 106.955 18.54 106.731 18.412C106.336 18.188 105.936 18.028 105.531 17.932C105.126 17.836 104.688 17.788 104.219 17.788C103.728 17.788 103.307 17.8573 102.955 17.996C102.603 18.1347 102.331 18.332 102.139 18.588C101.958 18.8333 101.867 19.1267 101.867 19.468C101.867 19.852 101.995 20.1613 102.251 20.396C102.507 20.62 102.944 20.796 103.563 20.924L105.307 21.292C106.363 21.516 107.147 21.868 107.659 22.348C108.182 22.828 108.443 23.468 108.443 24.268C108.443 24.78 108.336 25.244 108.123 25.66C107.92 26.076 107.622 26.4333 107.227 26.732C106.843 27.0307 106.379 27.26 105.835 27.42C105.291 27.58 104.678 27.66 103.995 27.66ZM114.089 27.66C113.619 27.66 113.15 27.6227 112.681 27.548C112.211 27.484 111.769 27.3827 111.353 27.244C110.937 27.0947 110.563 26.9133 110.233 26.7C110.041 26.572 109.907 26.4173 109.833 26.236C109.758 26.0547 109.731 25.8787 109.753 25.708C109.785 25.5267 109.854 25.372 109.961 25.244C110.078 25.1053 110.222 25.02 110.393 24.988C110.563 24.956 110.75 25.004 110.953 25.132C111.422 25.4093 111.918 25.612 112.441 25.74C112.963 25.868 113.513 25.932 114.089 25.932C114.931 25.932 115.545 25.7933 115.929 25.516C116.313 25.228 116.505 24.86 116.505 24.412C116.505 24.0387 116.366 23.7453 116.089 23.532C115.822 23.3187 115.358 23.1427 114.697 23.004L112.937 22.636C111.923 22.4227 111.166 22.0653 110.665 21.564C110.174 21.052 109.929 20.38 109.929 19.548C109.929 19.0253 110.035 18.5507 110.249 18.124C110.462 17.6973 110.761 17.3293 111.145 17.02C111.539 16.7107 112.003 16.476 112.537 16.316C113.081 16.1453 113.678 16.06 114.329 16.06C114.969 16.06 115.577 16.14 116.153 16.3C116.729 16.46 117.246 16.6947 117.705 17.004C117.875 17.1213 117.987 17.2653 118.041 17.436C118.105 17.6067 118.121 17.7773 118.089 17.948C118.057 18.108 117.982 18.2467 117.865 18.364C117.747 18.4813 117.598 18.5507 117.417 18.572C117.246 18.5933 117.049 18.54 116.825 18.412C116.43 18.188 116.03 18.028 115.625 17.932C115.219 17.836 114.782 17.788 114.313 17.788C113.822 17.788 113.401 17.8573 113.049 17.996C112.697 18.1347 112.425 18.332 112.233 18.588C112.051 18.8333 111.961 19.1267 111.961 19.468C111.961 19.852 112.089 20.1613 112.345 20.396C112.601 20.62 113.038 20.796 113.657 20.924L115.401 21.292C116.457 21.516 117.241 21.868 117.753 22.348C118.275 22.828 118.537 23.468 118.537 24.268C118.537 24.78 118.43 25.244 118.217 25.66C118.014 26.076 117.715 26.4333 117.321 26.732C116.937 27.0307 116.473 27.26 115.929 27.42C115.385 27.58 114.771 27.66 114.089 27.66Z" fill="#0F172A"/>
</g>
<defs>
<clipPath id="clip0_1474_14676">
<rect width="120" height="32" fill="white"/>
</clipPath>
</defs>
</svg>
