<svg width="40" height="40" viewBox="0 0 40 40" fill="none" xmlns="http://www.w3.org/2000/svg">
<rect width="40" height="40" rx="4" fill="#FF9900"/>
<path d="M9.9165 26.4167V13.0104H11.2915V22.0396H19.3811V14.9583H26.7603C27.6769 14.9583 28.4599 15.283 29.1092 15.9323C29.7585 16.5816 30.0832 17.3646 30.0832 18.2812V26.4167H28.7082V23.4146H11.2915V26.4167H9.9165ZM15.1873 20.7104C14.4998 20.7104 13.9231 20.4774 13.4571 20.0114C12.9912 19.5455 12.7582 18.9687 12.7582 18.2812C12.7582 17.5937 12.9912 17.017 13.4571 16.551C13.9231 16.0851 14.4998 15.8521 15.1873 15.8521C15.8748 15.8521 16.4516 16.0851 16.9175 16.551C17.3835 17.017 17.6165 17.5937 17.6165 18.2812C17.6165 18.9687 17.3835 19.5455 16.9175 20.0114C16.4516 20.4774 15.8748 20.7104 15.1873 20.7104ZM20.7561 22.0396H28.7082V18.2812C28.7082 17.7465 28.5172 17.2882 28.1353 16.9062C27.7533 16.5243 27.295 16.3333 26.7603 16.3333H20.7561V22.0396ZM15.1873 19.3354C15.4776 19.3354 15.7259 19.2323 15.9321 19.026C16.1384 18.8198 16.2415 18.5715 16.2415 18.2812C16.2415 17.991 16.1384 17.7427 15.9321 17.5364C15.7259 17.3302 15.4776 17.2271 15.1873 17.2271C14.8971 17.2271 14.6488 17.3302 14.4425 17.5364C14.2363 17.7427 14.1332 17.991 14.1332 18.2812C14.1332 18.5715 14.2363 18.8198 14.4425 19.026C14.6488 19.2323 14.8971 19.3354 15.1873 19.3354ZM20.7561 16.3333V22.0396V16.3333Z" fill="white"/>
</svg>
