<svg width="40" height="40" viewBox="0 0 40 40" fill="none" xmlns="http://www.w3.org/2000/svg">
<rect width="40" height="40" rx="4" fill="#9747FF"/>
<path d="M15.9096 30.8194L14.3262 29.6319V24.75H12.7429C12.3207 24.75 11.9512 24.5917 11.6346 24.275C11.3179 23.9583 11.1596 23.5889 11.1596 23.1667V14.7222H10.8957C10.667 14.7222 10.4778 14.6474 10.3283 14.4979C10.1788 14.3484 10.104 14.1592 10.104 13.9305C10.104 13.7018 10.1788 13.5127 10.3283 13.3632C10.4778 13.2136 10.667 13.1389 10.8957 13.1389H14.3262V10.7639H13.5346C13.3059 10.7639 13.1167 10.6891 12.9672 10.5396C12.8177 10.39 12.7429 10.2009 12.7429 9.97221C12.7429 9.7435 12.8177 9.55438 12.9672 9.40485C13.1167 9.25531 13.3059 9.18054 13.5346 9.18054H16.7012C16.9299 9.18054 17.1191 9.25531 17.2686 9.40485C17.4181 9.55438 17.4929 9.7435 17.4929 9.97221C17.4929 10.2009 17.4181 10.39 17.2686 10.5396C17.1191 10.6891 16.9299 10.7639 16.7012 10.7639H15.9096V13.1389H19.3401C19.5688 13.1389 19.7579 13.2136 19.9075 13.3632C20.057 13.5127 20.1318 13.7018 20.1318 13.9305C20.1318 14.1592 20.057 14.3484 19.9075 14.4979C19.7579 14.6474 19.5688 14.7222 19.3401 14.7222H19.0762V23.1667C19.0762 23.5889 18.9179 23.9583 18.6012 24.275C18.2846 24.5917 17.9151 24.75 17.4929 24.75H15.9096V30.8194ZM12.7429 23.1667H17.4929V21.0555H15.3818C15.241 21.0555 15.1179 21.0028 15.0123 20.8972C14.9068 20.7917 14.854 20.6685 14.854 20.5278C14.854 20.387 14.9068 20.2639 15.0123 20.1583C15.1179 20.0528 15.241 20 15.3818 20H17.4929V17.8889H15.3818C15.241 17.8889 15.1179 17.8361 15.0123 17.7305C14.9068 17.625 14.854 17.5018 14.854 17.3611C14.854 17.2204 14.9068 17.0972 15.0123 16.9917C15.1179 16.8861 15.241 16.8333 15.3818 16.8333H17.4929V14.7222H12.7429V23.1667ZM23.5623 30.2917C23.1401 30.2917 22.7707 30.1333 22.454 29.8167C22.1373 29.5 21.979 29.1305 21.979 28.7083V21.6889C21.979 21.1259 22.0494 20.6993 22.1901 20.409C22.3309 20.1187 22.5156 19.8504 22.7443 19.6042C23.0785 19.2523 23.2984 18.9796 23.404 18.7861C23.5096 18.5926 23.5623 18.3815 23.5623 18.1528V17.3611H23.2984C23.0697 17.3611 22.8806 17.2863 22.7311 17.1368C22.5815 16.9873 22.5068 16.7981 22.5068 16.5694C22.5068 16.3407 22.5859 16.1516 22.7443 16.0021C22.9026 15.8525 23.0873 15.7778 23.2984 15.7778H28.5762C28.8049 15.7778 28.994 15.8525 29.1436 16.0021C29.2931 16.1516 29.3679 16.3407 29.3679 16.5694C29.3679 16.7981 29.2931 16.9873 29.1436 17.1368C28.994 17.2863 28.8049 17.3611 28.5762 17.3611H28.3123V18.1528C28.3123 18.3639 28.3783 18.5838 28.5103 18.8125C28.6422 19.0412 28.8753 19.3315 29.2096 19.6833C29.4383 19.9296 29.6098 20.1847 29.7241 20.4486C29.8385 20.7125 29.8957 21.1259 29.8957 21.6889V28.7083C29.8957 29.1305 29.7373 29.5 29.4207 29.8167C29.104 30.1333 28.7346 30.2917 28.3123 30.2917H23.5623ZM23.5623 22.375H28.3123V21.6889C28.3123 21.3722 28.2244 21.0907 28.0484 20.8444C27.8725 20.5981 27.679 20.343 27.4679 20.0792C27.204 19.7449 27.0149 19.437 26.9005 19.1555C26.7862 18.8741 26.729 18.5398 26.729 18.1528V17.3611H25.1457V18.1528C25.1457 18.5222 25.0929 18.8477 24.9873 19.1292C24.8818 19.4106 24.6971 19.7185 24.4332 20.0528C24.2221 20.3167 24.0241 20.5761 23.8394 20.8312C23.6547 21.0863 23.5623 21.3722 23.5623 21.6889V22.375ZM23.5623 25.5417H28.3123V23.4305H23.5623V25.5417ZM23.5623 28.7083H28.3123V26.5972H23.5623V28.7083ZM23.5623 25.5417H28.3123H23.5623Z" fill="white"/>
</svg>
