<svg width="20" height="22" viewBox="0 0 20 22" fill="none" xmlns="http://www.w3.org/2000/svg">
<path d="M5.90956 21.8194L4.32623 20.6319V15.75H2.74289C2.32067 15.75 1.95123 15.5917 1.63456 15.275C1.31789 14.9583 1.15956 14.5889 1.15956 14.1667V5.72221H0.895671C0.666967 5.72221 0.477847 5.64744 0.32831 5.4979C0.178773 5.34837 0.104004 5.15925 0.104004 4.93054C0.104004 4.70184 0.178773 4.51272 0.32831 4.36318C0.477847 4.21364 0.666967 4.13888 0.895671 4.13888H4.32623V1.76388H3.53456C3.30586 1.76388 3.11674 1.68911 2.9672 1.53957C2.81766 1.39003 2.74289 1.20091 2.74289 0.972209C2.74289 0.743505 2.81766 0.554385 2.9672 0.404848C3.11674 0.255311 3.30586 0.180542 3.53456 0.180542H6.70123C6.92993 0.180542 7.11905 0.255311 7.26859 0.404848C7.41812 0.554385 7.49289 0.743505 7.49289 0.972209C7.49289 1.20091 7.41812 1.39003 7.26859 1.53957C7.11905 1.68911 6.92993 1.76388 6.70123 1.76388H5.90956V4.13888H9.34011C9.56882 4.13888 9.75794 4.21364 9.90748 4.36318C10.057 4.51272 10.1318 4.70184 10.1318 4.93054C10.1318 5.15925 10.057 5.34837 9.90748 5.4979C9.75794 5.64744 9.56882 5.72221 9.34011 5.72221H9.07623V14.1667C9.07623 14.5889 8.91789 14.9583 8.60123 15.275C8.28456 15.5917 7.91511 15.75 7.49289 15.75H5.90956V21.8194ZM2.74289 14.1667H7.49289V12.0555H5.38178C5.24104 12.0555 5.11789 12.0028 5.01234 11.8972C4.90678 11.7917 4.854 11.6685 4.854 11.5278C4.854 11.387 4.90678 11.2639 5.01234 11.1583C5.11789 11.0528 5.24104 11 5.38178 11H7.49289V8.88888H5.38178C5.24104 8.88888 5.11789 8.8361 5.01234 8.73054C4.90678 8.62499 4.854 8.50184 4.854 8.3611C4.854 8.22036 4.90678 8.09721 5.01234 7.99165C5.11789 7.8861 5.24104 7.83332 5.38178 7.83332H7.49289V5.72221H2.74289V14.1667ZM13.5623 21.2917C13.1401 21.2917 12.7707 21.1333 12.454 20.8167C12.1373 20.5 11.979 20.1305 11.979 19.7083V12.6889C11.979 12.1259 12.0494 11.6993 12.1901 11.409C12.3309 11.1187 12.5156 10.8504 12.7443 10.6042C13.0785 10.2523 13.2984 9.97962 13.404 9.7861C13.5096 9.59258 13.5623 9.38147 13.5623 9.15276V8.3611H13.2984C13.0697 8.3611 12.8806 8.28633 12.7311 8.13679C12.5815 7.98726 12.5068 7.79813 12.5068 7.56943C12.5068 7.34073 12.5859 7.15161 12.7443 7.00207C12.9026 6.85253 13.0873 6.77776 13.2984 6.77776H18.5762C18.8049 6.77776 18.994 6.85253 19.1436 7.00207C19.2931 7.15161 19.3679 7.34073 19.3679 7.56943C19.3679 7.79813 19.2931 7.98726 19.1436 8.13679C18.994 8.28633 18.8049 8.3611 18.5762 8.3611H18.3123V9.15276C18.3123 9.36388 18.3783 9.58378 18.5103 9.81249C18.6422 10.0412 18.8753 10.3315 19.2096 10.6833C19.4383 10.9296 19.6098 11.1847 19.7241 11.4486C19.8385 11.7125 19.8957 12.1259 19.8957 12.6889V19.7083C19.8957 20.1305 19.7373 20.5 19.4207 20.8167C19.104 21.1333 18.7346 21.2917 18.3123 21.2917H13.5623ZM13.5623 13.375H18.3123V12.6889C18.3123 12.3722 18.2244 12.0907 18.0484 11.8444C17.8725 11.5981 17.679 11.343 17.4679 11.0792C17.204 10.7449 17.0149 10.437 16.9005 10.1555C16.7862 9.87406 16.729 9.5398 16.729 9.15276V8.3611H15.1457V9.15276C15.1457 9.52221 15.0929 9.84767 14.9873 10.1292C14.8818 10.4106 14.6971 10.7185 14.4332 11.0528C14.2221 11.3167 14.0241 11.5761 13.8394 11.8312C13.6547 12.0863 13.5623 12.3722 13.5623 12.6889V13.375ZM13.5623 16.5417H18.3123V14.4305H13.5623V16.5417ZM13.5623 19.7083H18.3123V17.5972H13.5623V19.7083ZM13.5623 16.5417H18.3123H13.5623Z" fill="white"/>
</svg>
