<svg
    width="17"
    height="18"
    viewBox="0 0 17 18"
    fill="none"
    xmlns="http://www.w3.org/2000/svg"
    >
  <path
      d="M5.45833 17.75L4.20833 16.8125V12.9583H2.95833C2.625 12.9583 2.33333 12.8333 2.08333 12.5833C1.83333 12.3333 1.70833 12.0417 1.70833 11.7083V5.04167H1.5C1.31944 5.04167 1.17014 4.98264 1.05208 4.86459C0.934028 4.74653 0.875 4.59723 0.875 4.41667C0.875 4.23612 0.934028 4.08681 1.05208 3.96876C1.17014 3.8507 1.31944 3.79167 1.5 3.79167H4.20833V1.91667H3.58333C3.40278 1.91667 3.25347 1.85764 3.13542 1.73959C3.01736 1.62153 2.95833 1.47223 2.95833 1.29167C2.95833 1.11112 3.01736 0.961811 3.13542 0.843755C3.25347 0.7257 3.40278 0.666672 3.58333 0.666672H6.08333C6.26389 0.666672 6.41319 0.7257 6.53125 0.843755C6.64931 0.961811 6.70833 1.11112 6.70833 1.29167C6.70833 1.47223 6.64931 1.62153 6.53125 1.73959C6.41319 1.85764 6.26389 1.91667 6.08333 1.91667H5.45833V3.79167H8.16667C8.34722 3.79167 8.49653 3.8507 8.61458 3.96876C8.73264 4.08681 8.79167 4.23612 8.79167 4.41667C8.79167 4.59723 8.73264 4.74653 8.61458 4.86459C8.49653 4.98264 8.34722 5.04167 8.16667 5.04167H7.95833V11.7083C7.95833 12.0417 7.83333 12.3333 7.58333 12.5833C7.33333 12.8333 7.04167 12.9583 6.70833 12.9583H5.45833V17.75ZM2.95833 11.7083H6.70833V10.0417H5.04167C4.93056 10.0417 4.83333 10 4.75 9.91667C4.66667 9.83334 4.625 9.73612 4.625 9.62501C4.625 9.51389 4.66667 9.41667 4.75 9.33334C4.83333 9.25 4.93056 9.20834 5.04167 9.20834H6.70833V7.54167H5.04167C4.93056 7.54167 4.83333 7.50001 4.75 7.41667C4.66667 7.33334 4.625 7.23612 4.625 7.12501C4.625 7.01389 4.66667 6.91667 4.75 6.83334C4.83333 6.75001 4.93056 6.70834 5.04167 6.70834H6.70833V5.04167H2.95833V11.7083ZM11.5 17.3333C11.1667 17.3333 10.875 17.2083 10.625 16.9583C10.375 16.7083 10.25 16.4167 10.25 16.0833V10.5417C10.25 10.0972 10.3056 9.76042 10.4167 9.53126C10.5278 9.30209 10.6736 9.09028 10.8542 8.89584C11.1181 8.61806 11.2917 8.40278 11.375 8.25001C11.4583 8.09723 11.5 7.93056 11.5 7.75001V7.12501H11.2917C11.1111 7.12501 10.9618 7.06598 10.8437 6.94792C10.7257 6.82987 10.6667 6.68056 10.6667 6.50001C10.6667 6.31945 10.7292 6.17014 10.8542 6.05209C10.9792 5.93403 11.125 5.87501 11.2917 5.87501H15.4583C15.6389 5.87501 15.7882 5.93403 15.9062 6.05209C16.0243 6.17014 16.0833 6.31945 16.0833 6.50001C16.0833 6.68056 16.0243 6.82987 15.9062 6.94792C15.7882 7.06598 15.6389 7.12501 15.4583 7.12501H15.25V7.75001C15.25 7.91667 15.3021 8.09028 15.4062 8.27084C15.5104 8.45139 15.6944 8.68056 15.9583 8.95834C16.1389 9.15278 16.2743 9.35417 16.3646 9.56251C16.4549 9.77084 16.5 10.0972 16.5 10.5417V16.0833C16.5 16.4167 16.375 16.7083 16.125 16.9583C15.875 17.2083 15.5833 17.3333 15.25 17.3333H11.5ZM11.5 11.0833H15.25V10.5417C15.25 10.2917 15.1806 10.0695 15.0417 9.87501C14.9028 9.68056 14.75 9.47917 14.5833 9.27084C14.375 9.00695 14.2257 8.76389 14.1354 8.54167C14.0451 8.31945 14 8.05556 14 7.75001V7.12501H12.75V7.75001C12.75 8.04167 12.7083 8.29862 12.625 8.52084C12.5417 8.74306 12.3958 8.98612 12.1875 9.25001C12.0208 9.45834 11.8646 9.6632 11.7188 9.86459C11.5729 10.066 11.5 10.2917 11.5 10.5417V11.0833ZM11.5 13.5833H15.25V11.9167H11.5V13.5833ZM11.5 16.0833H15.25V14.4167H11.5V16.0833ZM11.5 13.5833H15.25H11.5Z"
      fill="#FFFFFF"
      />
</svg>