<svg width="20" height="20" viewBox="0 0 20 20" fill="none" xmlns="http://www.w3.org/2000/svg">
<path d="M3.75 16.25H12.0833V12.0833H16.25V3.75H3.75V16.25ZM3.75 17.5C3.40278 17.5 3.10764 17.3785 2.86458 17.1354C2.62153 16.8924 2.5 16.5972 2.5 16.25V3.75C2.5 3.40278 2.62153 3.10764 2.86458 2.86458C3.10764 2.62153 3.40278 2.5 3.75 2.5H16.25C16.5972 2.5 16.8924 2.62153 17.1354 2.86458C17.3785 3.10764 17.5 3.40278 17.5 3.75V12.5L12.5 17.5H3.75ZM6.25 11.25V10H9.79167V11.25H6.25ZM6.25 7.91667V6.66667H13.75V7.91667H6.25Z" fill="#334155"/>
</svg>
