<svg width="28" height="27" viewBox="0 0 28 27" fill="none" xmlns="http://www.w3.org/2000/svg">
<path d="M14.0001 12.9583C12.1667 12.9583 10.6667 12.3749 9.50008 11.2083C8.33342 10.0416 7.75008 8.54159 7.75008 6.70825C7.75008 4.87492 8.33342 3.37492 9.50008 2.20825C10.6667 1.04159 12.1667 0.458252 14.0001 0.458252C15.8334 0.458252 17.3334 1.04159 18.5001 2.20825C19.6667 3.37492 20.2501 4.87492 20.2501 6.70825C20.2501 8.54159 19.6667 10.0416 18.5001 11.2083C17.3334 12.3749 15.8334 12.9583 14.0001 12.9583ZM0.666748 26.3333V22.4166C0.666748 21.361 0.930637 20.4583 1.45841 19.7083C1.98619 18.9583 2.66675 18.3888 3.50008 17.9999C5.36119 17.1666 7.14592 16.5416 8.85425 16.1249C10.5626 15.7083 12.2779 15.4999 14.0001 15.4999C15.7223 15.4999 17.4306 15.7152 19.1251 16.1458C20.8195 16.5763 22.5973 17.1944 24.4584 17.9999C25.3195 18.3888 26.014 18.9583 26.5417 19.7083C27.0695 20.4583 27.3334 21.361 27.3334 22.4166V26.3333H0.666748ZM3.16675 23.8333H24.8334V22.4166C24.8334 21.9721 24.7015 21.5485 24.4376 21.1458C24.1737 20.743 23.8473 20.4444 23.4584 20.2499C21.6806 19.3888 20.0556 18.7985 18.5834 18.4791C17.1112 18.1596 15.5834 17.9999 14.0001 17.9999C12.4167 17.9999 10.8751 18.1596 9.37508 18.4791C7.87508 18.7985 6.25008 19.3888 4.50008 20.2499C4.11119 20.4444 3.79175 20.743 3.54175 21.1458C3.29175 21.5485 3.16675 21.9721 3.16675 22.4166V23.8333ZM14.0001 10.4583C15.0834 10.4583 15.9792 10.1041 16.6876 9.39575C17.3959 8.68742 17.7501 7.79159 17.7501 6.70825C17.7501 5.62492 17.3959 4.72909 16.6876 4.02075C15.9792 3.31242 15.0834 2.95825 14.0001 2.95825C12.9167 2.95825 12.0209 3.31242 11.3126 4.02075C10.6042 4.72909 10.2501 5.62492 10.2501 6.70825C10.2501 7.79159 10.6042 8.68742 11.3126 9.39575C12.0209 10.1041 12.9167 10.4583 14.0001 10.4583Z" fill="#0F172A"/>
</svg>
