<svg width="20" height="20" viewBox="0 0 20 20" fill="none" xmlns="http://www.w3.org/2000/svg">
<path d="M16.5833 17.4792L11.1042 12C10.6875 12.3611 10.2014 12.6424 9.64583 12.8437C9.09028 13.0451 8.5 13.1458 7.875 13.1458C6.375 13.1458 5.10417 12.625 4.0625 11.5833C3.02083 10.5417 2.5 9.28471 2.5 7.81249C2.5 6.34027 3.02083 5.08332 4.0625 4.04166C5.10417 2.99999 6.36806 2.47916 7.85417 2.47916C9.32639 2.47916 10.5799 2.99999 11.6146 4.04166C12.6493 5.08332 13.1667 6.34027 13.1667 7.81249C13.1667 8.40971 13.0694 8.9861 12.875 9.54166C12.6806 10.0972 12.3889 10.618 12 11.1042L17.5 16.5625L16.5833 17.4792ZM7.85417 11.8958C8.97917 11.8958 9.9375 11.4965 10.7292 10.6979C11.5208 9.89929 11.9167 8.93749 11.9167 7.81249C11.9167 6.68749 11.5208 5.72568 10.7292 4.92707C9.9375 4.12846 8.97917 3.72916 7.85417 3.72916C6.71528 3.72916 5.74653 4.12846 4.94792 4.92707C4.14931 5.72568 3.75 6.68749 3.75 7.81249C3.75 8.93749 4.14931 9.89929 4.94792 10.6979C5.74653 11.4965 6.71528 11.8958 7.85417 11.8958V11.8958Z" fill="#334155"/>
</svg>
